# xmcd
#
# Track frame offsets: 
#        150
#        13300
#        31452
#        52945
#        70775
#        86177
#        101590
#        114550
#        130838
#        149247
#        167233
#        180873
#        197329
#        217852
#        234908
#        251285
#        269327
#        287379
#        304454
#        320579
#        338238
#
# Disc length: 4702 seconds
#
# Revision: 1
# Processed by: cddbd v1.5.1PL0 Copyright (c) Steve Scherf et al.
# Submitted via: ExactAudioCopy v0.90b4
#
DISCID=2e125c15
DTITLE=Various Artist - Best Country Woman Hits
DYEAR=1900
DGENRE=Country
TTITLE0=Shania Twain - Up!
TTITLE1=Martina McBride - Concrete Angel
TTITLE2=Shania Twain - Forever And For Always
TTITLE3=Sara Evans - I Keep Looking
TTITLE4=Gretchen Wilson - Here For The Party
TTITLE5=Shania Twain - Party For Two
TTITLE6=LeeAnn Rimes - Nothing 'Bout Love Makes Sense
TTITLE7=Reba McEntire - He Gets That From Me
TTITLE8=Shania Twain - I'm Gonna Getcha Good
TTITLE9=Faith Hill - When The Lights Go Down
TTITLE10=Tracy Bird - Ten Rounds With Jose Cuervo
TTITLE11=Dixie Chicks - Long Time Gone
TTITLE12=Martina McBride - Where Would You Be
TTITLE13=Dixie Chicks - Landslide
TTITLE14=Wynonna - What The World Needs
TTITLE15=Martina McBride - This One's For The Girls
TTITLE16=Shania Twain - Thank You Baby
TTITLE17=Faith Hill - Cry
TTITLE18=Gretchen Wilson - Redneck Woman
TTITLE19=Sara Evans - Perfect
TTITLE20=Martina McBride - In My Daughters Eyes
EXTD=
EXTT0=
EXTT1=
EXTT2=
EXTT3=
EXTT4=
EXTT5=
EXTT6=
EXTT7=
EXTT8=
EXTT9=
EXTT10=
EXTT11=
EXTT12=
EXTT13=
EXTT14=
EXTT15=
EXTT16=
EXTT17=
EXTT18=
EXTT19=
EXTT20=
PLAYORDER=
